<!DOCTYPE svg PUBLIC "-//W3C//DTD SVG 1.1//EN" "http://www.w3.org/Graphics/SVG/1.1/DTD/svg11.dtd">
<!-- Uploaded to: SVG Repo, www.svgrepo.com, Transformed by: SVG Repo Mixer Tools -->
<svg width="800px" height="800px" viewBox="-11.52 -11.52 87.04 87.04" xmlns="http://www.w3.org/2000/svg" stroke-width="1.6" stroke="#000000" fill="none">
<g id="SVGRepo_bgCarrier" stroke-width="0">
<path transform="translate(-11.52, -11.52), scale(5.44)" fill="#ffae00" d="M9.166.33a2.25 2.25 0 00-2.332 0l-5.25 3.182A2.25 2.25 0 00.5 5.436v5.128a2.25 2.25 0 001.084 1.924l5.25 3.182a2.25 2.25 0 002.332 0l5.25-3.182a2.25 2.25 0 001.084-1.924V5.436a2.25 2.25 0 00-1.084-1.924L9.166.33z" strokewidth="0"/>
</g>
<g id="SVGRepo_tracerCarrier" stroke-linecap="round" stroke-linejoin="round"/>
<g id="SVGRepo_iconCarrier">
<circle cx="29.22" cy="16.28" r="11.14"/>
<path d="M41.32,35.69c-2.69-1.95-8.34-3.25-12.1-3.25h0A22.55,22.55,0,0,0,6.67,55h29.9"/>
<circle cx="45.38" cy="46.92" r="11.94"/>
<line x1="45.98" y1="39.8" x2="45.98" y2="53.8"/>
<line x1="38.98" y1="46.8" x2="52.98" y2="46.8"/>
</g>
</svg>